<svg width="212" height="41" viewBox="0 0 212 41" fill="none" xmlns="http://www.w3.org/2000/svg">
<rect width="212" height="41" rx="4" fill="white"/>
<rect width="212" height="41" rx="4" fill="url(#paint0_linear_3_73)" fill-opacity="0.1"/>
<g clip-path="url(#clip0_3_73)">
<path d="M16.1892 27.2493C16.939 26.815 16.9403 25.4086 16.192 24.1083C15.4437 22.8078 14.2293 22.1058 13.4794 22.5402C12.7296 22.9746 12.7284 24.3809 13.4767 25.6812C14.2249 26.9817 15.4394 27.6837 16.1892 27.2493Z" fill="#F26E7E"/>
<path d="M31.5251 25.6832C32.2734 24.3828 32.2722 22.9766 31.5223 22.5422C30.7726 22.1078 29.5581 22.8098 28.8097 24.1102C28.0615 25.4105 28.0627 26.8168 28.8126 27.2512C29.5624 27.6856 30.7769 26.9836 31.5251 25.6832Z" fill="#8A3391"/>
<path d="M21.299 30.2135C22.0488 29.7791 22.0501 28.3729 21.3018 27.0724C20.5535 25.7721 19.3391 25.0701 18.5892 25.5044C17.8394 25.9388 17.8382 27.3451 18.5865 28.6455C19.3347 29.9458 20.5492 30.6479 21.299 30.2135Z" fill="#F26E7E"/>
<path d="M26.4163 28.6425C27.1646 27.342 27.1634 25.9358 26.4136 25.5014C25.6638 25.0671 24.4493 25.7691 23.701 27.0694C22.9527 28.3698 22.954 29.7761 23.7038 30.2105C24.4536 30.6449 25.6681 29.9428 26.4163 28.6425Z" fill="#8A3391"/>
<path d="M22.4975 13.146C23.9941 13.146 25.2073 12.4418 25.2073 11.573C25.2073 10.7043 23.9941 10 22.4975 10C21.001 10 19.7878 10.7043 19.7878 11.573C19.7878 12.4418 21.001 13.146 22.4975 13.146Z" fill="#F7BF2A"/>
<path d="M16.1874 21.3239C16.9373 20.8895 16.9385 19.4832 16.1902 18.1828C15.442 16.8824 14.2275 16.1804 13.4777 16.6148C12.7279 17.0491 12.7266 18.4554 13.4749 19.7558C14.2232 21.0562 15.4376 21.7582 16.1874 21.3239Z" fill="#F26E7E"/>
<path d="M17.3889 16.1023C18.8855 16.1023 20.0987 15.398 20.0987 14.5292C20.0987 13.6605 18.8855 12.9562 17.3889 12.9562C15.8923 12.9562 14.6791 13.6605 14.6791 14.5292C14.6791 15.398 15.8923 16.1023 17.3889 16.1023Z" fill="#F7BF2A"/>
<path d="M31.5222 19.7591C32.2704 18.4587 32.2692 17.0524 31.5194 16.618C30.7696 16.1837 29.5552 16.8857 28.8068 18.1861C28.0585 19.4865 28.0598 20.8928 28.8096 21.3271C29.5595 21.7615 30.7739 21.0595 31.5222 19.7591Z" fill="#8A3391"/>
<path d="M27.6131 16.1023C29.1096 16.1023 30.3228 15.398 30.3228 14.5292C30.3228 13.6605 29.1096 12.9562 27.6131 12.9562C26.1165 12.9562 24.9034 13.6605 24.9034 14.5292C24.9034 15.398 26.1165 16.1023 27.6131 16.1023Z" fill="#F7BF2A"/>
<path d="M21.2973 24.288C22.0472 23.8536 22.0484 22.4474 21.3001 21.147C20.5518 19.8466 19.3374 19.1446 18.5876 19.579C17.8377 20.0133 17.8365 21.4196 18.5848 22.72C19.3331 24.0204 20.5475 24.7224 21.2973 24.288Z" fill="#F26E7E"/>
<path d="M26.4134 22.7183C27.1616 21.418 27.1604 20.0117 26.4105 19.5773C25.6608 19.1429 24.4463 19.845 23.698 21.1453C22.9497 22.4457 22.951 23.852 23.7008 24.2864C24.4506 24.7208 25.6651 24.0188 26.4134 22.7183Z" fill="#8A3391"/>
<path d="M22.4975 19.0651C23.9941 19.0651 25.2073 18.3609 25.2073 17.4921C25.2073 16.6234 23.9941 15.9191 22.4975 15.9191C21.001 15.9191 19.7878 16.6234 19.7878 17.4921C19.7878 18.3609 21.001 19.0651 22.4975 19.0651Z" fill="#F7BF2A"/>
</g>
<path d="M44.35 14.4H49.264C50.974 14.4 52.396 15.012 53.53 16.236C54.664 17.442 55.24 18.936 55.24 20.7C55.24 22.464 54.664 23.958 53.53 25.182C52.396 26.388 50.974 27 49.264 27H44.35V14.4ZM46.024 25.416H49.264C50.542 25.416 51.604 24.966 52.414 24.066C53.224 23.166 53.638 22.05 53.638 20.7C53.638 19.35 53.224 18.234 52.414 17.334C51.604 16.434 50.542 15.984 49.264 15.984H46.024V25.416ZM65.7479 23.22H58.2059C58.5119 24.822 59.7539 25.758 61.4639 25.758C62.6519 25.758 63.5159 25.326 64.0559 24.444L65.3879 25.2C64.5059 26.55 63.1919 27.234 61.4279 27.234C60.0059 27.234 58.8359 26.784 57.9359 25.902C57.0539 25.002 56.6039 23.868 56.6039 22.5C56.6039 21.15 57.0359 20.016 57.9179 19.116C58.7999 18.216 59.9339 17.766 61.3199 17.766C62.6339 17.766 63.7139 18.234 64.5419 19.17C65.3879 20.088 65.8019 21.204 65.8019 22.518C65.8019 22.752 65.7839 22.986 65.7479 23.22ZM61.3199 19.242C59.6459 19.242 58.4759 20.268 58.2059 21.852H64.2179C63.9479 20.142 62.7599 19.242 61.3199 19.242ZM72.5701 17.766C73.8301 17.766 74.9101 18.234 75.7921 19.152C76.6741 20.07 77.1241 21.186 77.1241 22.5C77.1241 23.814 76.6741 24.948 75.7921 25.866C74.9101 26.784 73.8301 27.234 72.5701 27.234C71.0761 27.234 69.9421 26.64 69.1681 25.452V30.6H67.6021V18H69.1681V19.548C69.9421 18.36 71.0761 17.766 72.5701 17.766ZM72.3721 25.722C73.2721 25.722 74.0281 25.416 74.6401 24.804C75.2521 24.174 75.5581 23.418 75.5581 22.5C75.5581 21.582 75.2521 20.826 74.6401 20.214C74.0281 19.584 73.2721 19.278 72.3721 19.278C71.4541 19.278 70.6981 19.584 70.0861 20.214C69.4741 20.826 69.1681 21.582 69.1681 22.5C69.1681 23.418 69.4741 24.174 70.0861 24.804C70.6981 25.416 71.4541 25.722 72.3721 25.722ZM80.5587 27H78.9927V13.86H80.5587V27ZM90.5438 25.866C89.6258 26.784 88.4918 27.234 87.1778 27.234C85.8638 27.234 84.7298 26.784 83.8118 25.866C82.8938 24.948 82.4438 23.832 82.4438 22.5C82.4438 21.168 82.8938 20.052 83.8118 19.134C84.7298 18.216 85.8638 17.766 87.1778 17.766C88.4918 17.766 89.6258 18.216 90.5438 19.134C91.4618 20.052 91.9298 21.168 91.9298 22.5C91.9298 23.832 91.4618 24.948 90.5438 25.866ZM87.1778 25.704C88.0778 25.704 88.8338 25.398 89.4458 24.786C90.0578 24.174 90.3638 23.418 90.3638 22.5C90.3638 21.582 90.0578 20.826 89.4458 20.214C88.8338 19.602 88.0778 19.296 87.1778 19.296C86.2958 19.296 85.5398 19.602 84.9278 20.214C84.3158 20.826 84.0098 21.582 84.0098 22.5C84.0098 23.418 84.3158 24.174 84.9278 24.786C85.5398 25.398 86.2958 25.704 87.1778 25.704ZM97.1143 25.056L99.7063 18H101.38L97.7083 27.558C96.9343 29.592 95.5123 30.726 93.7123 30.6V29.142C94.8103 29.232 95.6203 28.62 96.1423 27.306L96.3043 26.964L92.3803 18H94.0543L97.1143 25.056ZM115.81 24.858L117.79 18H119.428L116.638 27H115.036L112.93 20.34L110.824 27H109.222L106.432 18H108.07L110.05 24.84L112.174 18H113.686L115.81 24.858ZM121.832 16.362C121.238 16.362 120.77 15.894 120.77 15.318C120.77 14.742 121.238 14.256 121.832 14.256C122.408 14.256 122.876 14.742 122.876 15.318C122.876 15.894 122.408 16.362 121.832 16.362ZM122.606 27H121.04V18H122.606V27ZM129.891 18V19.512H127.497V24.39C127.497 25.776 128.289 25.668 129.891 25.596V27C127.155 27.36 125.931 26.622 125.931 24.39V19.512H124.149V18H125.931V15.948L127.497 15.48V18H129.891ZM136.227 17.766C138.333 17.766 139.719 19.188 139.719 21.474V27H138.153V21.564C138.153 20.106 137.307 19.26 135.921 19.26C134.355 19.26 133.311 20.214 133.311 22.23V27H131.745V14.4H133.311V19.296C133.941 18.27 134.913 17.766 136.227 17.766ZM146.567 14.4H151.139C152.309 14.4 153.263 14.796 154.037 15.57C154.811 16.344 155.207 17.298 155.207 18.45C155.207 19.584 154.811 20.556 154.037 21.33C153.263 22.104 152.309 22.5 151.139 22.5H148.241V27H146.567V14.4ZM148.241 20.934H151.139C151.841 20.934 152.417 20.7 152.867 20.232C153.317 19.746 153.551 19.152 153.551 18.45C153.551 17.01 152.525 15.966 151.139 15.966H148.241V20.934ZM163.232 22.77V18H164.798V27H163.232V25.704C162.602 26.73 161.63 27.234 160.316 27.234C158.21 27.234 156.824 25.812 156.824 23.526V18H158.39V23.436C158.39 24.894 159.236 25.74 160.622 25.74C162.188 25.74 163.232 24.786 163.232 22.77ZM168.748 27H167.182V13.86H168.748V27ZM177.347 22.77V18H178.913V27H177.347V25.704C176.717 26.73 175.745 27.234 174.431 27.234C172.325 27.234 170.939 25.812 170.939 23.526V18H172.505V23.436C172.505 24.894 173.351 25.74 174.737 25.74C176.303 25.74 177.347 24.786 177.347 22.77ZM191.017 17.766C193.033 17.766 194.401 19.17 194.401 21.402V27H192.835V21.456C192.835 20.07 192.061 19.26 190.855 19.26C189.505 19.26 188.641 20.142 188.641 21.996V27H187.075V21.456C187.075 20.07 186.337 19.26 185.167 19.26C183.853 19.26 182.863 20.178 182.863 21.996V27H181.297V18H182.863V19.206C183.475 18.252 184.375 17.766 185.545 17.766C186.751 17.766 187.633 18.27 188.191 19.296C188.821 18.27 189.757 17.766 191.017 17.766ZM197.365 16.362C196.771 16.362 196.303 15.894 196.303 15.318C196.303 14.742 196.771 14.256 197.365 14.256C197.941 14.256 198.409 14.742 198.409 15.318C198.409 15.894 197.941 16.362 197.365 16.362ZM198.139 27H196.573V18H198.139V27Z" fill="#131314"/>
<defs>
<linearGradient id="paint0_linear_3_73" x1="0" y1="41.0002" x2="212" y2="41.0002" gradientUnits="userSpaceOnUse">
<stop stop-color="#F7BF2A"/>
<stop offset="0.182292" stop-color="#F26E7E"/>
<stop offset="0.380208" stop-color="#BE5188"/>
<stop offset="0.536458" stop-color="#8A3391"/>
<stop offset="0.744792" stop-color="#805AC3"/>
<stop offset="1" stop-color="#7682F4"/>
</linearGradient>
<clipPath id="clip0_3_73">
<rect width="21" height="21" fill="white" transform="translate(12 10)"/>
</clipPath>
</defs>
</svg>
