<svg width="215" height="46" viewBox="0 0 215 46" fill="none" xmlns="http://www.w3.org/2000/svg">
<rect width="214.059" height="45.2215" rx="6" fill="#2B2B2C"/>
<path d="M17.4163 29.9959C18.1986 29.5428 18.1999 28.0757 17.4193 26.719C16.6386 25.3625 15.3716 24.6301 14.5894 25.0832C13.8072 25.5363 13.8059 27.0034 14.5865 28.36C15.3672 29.7166 16.6341 30.4491 17.4163 29.9959Z" fill="#F26E7E"/>
<path d="M33.4153 28.361C34.196 27.0045 34.1947 25.5374 33.4125 25.0842C32.6303 24.6311 31.3632 25.3634 30.5825 26.7201C29.802 28.0766 29.8032 29.5437 30.5856 29.9969C31.3677 30.4501 32.6347 29.7178 33.4153 28.361Z" fill="#8A3391"/>
<path d="M22.7471 33.0874C23.5293 32.6342 23.5306 31.1671 22.7501 29.8106C21.9694 28.4539 20.7024 27.7215 19.9202 28.1747C19.138 28.6278 19.1367 30.095 19.9173 31.4515C20.6979 32.8083 21.9649 33.5405 22.7471 33.0874Z" fill="#F26E7E"/>
<path d="M28.0856 31.4483C28.8663 30.0918 28.8651 28.6247 28.0828 28.1715C27.3006 27.7184 26.0335 28.4506 25.2529 29.8074C24.4724 31.164 24.4737 32.6311 25.2559 33.0842C26.0381 33.5374 27.3051 32.805 28.0856 31.4483Z" fill="#8A3391"/>
<path d="M23.9975 15.2821C25.5588 15.2821 26.8244 14.5474 26.8244 13.641C26.8244 12.7347 25.5588 12 23.9975 12C22.4362 12 21.1705 12.7347 21.1705 13.641C21.1705 14.5474 22.4362 15.2821 23.9975 15.2821Z" fill="#F7BF2A"/>
<path d="M17.4145 23.8139C18.1967 23.3607 18.198 21.8937 17.4174 20.537C16.6367 19.1805 15.3698 18.4481 14.5875 18.9012C13.8053 19.3544 13.804 20.8215 14.5846 22.1781C15.3653 23.5347 16.6322 24.2671 17.4145 23.8139Z" fill="#F26E7E"/>
<path d="M18.6679 18.3662C20.2292 18.3662 21.4949 17.6314 21.4949 16.725C21.4949 15.8188 20.2292 15.084 18.6679 15.084C17.1067 15.084 15.841 15.8188 15.841 16.725C15.841 17.6314 17.1067 18.3662 18.6679 18.3662Z" fill="#F7BF2A"/>
<path d="M33.4124 22.1813C34.193 20.8247 34.1916 19.3576 33.4095 18.9044C32.6272 18.4513 31.3602 19.1836 30.5797 20.5403C29.799 21.8968 29.8003 23.364 30.5825 23.8172C31.3648 24.2702 32.6317 23.5379 33.4124 22.1813Z" fill="#8A3391"/>
<path d="M29.3342 18.3662C30.8954 18.3662 32.1611 17.6314 32.1611 16.725C32.1611 15.8188 30.8954 15.084 29.3342 15.084C27.7729 15.084 26.5073 15.8188 26.5073 16.725C26.5073 17.6314 27.7729 18.3662 29.3342 18.3662Z" fill="#F7BF2A"/>
<path d="M22.7453 26.9066C23.5276 26.4533 23.5289 24.9862 22.7482 23.6297C21.9676 22.273 20.7007 21.5406 19.9184 21.9938C19.1361 22.447 19.1348 23.914 19.9155 25.2707C20.6962 26.6273 21.9631 27.3597 22.7453 26.9066Z" fill="#F26E7E"/>
<path d="M28.0827 25.2685C28.8633 23.912 28.862 22.4449 28.0797 21.9917C27.2975 21.5385 26.0305 22.2709 25.2499 23.6275C24.4693 24.9841 24.4705 26.4512 25.2528 26.9044C26.0349 27.3575 27.302 26.6252 28.0827 25.2685Z" fill="#8A3391"/>
<path d="M23.9975 21.4576C25.5588 21.4576 26.8244 20.7229 26.8244 19.8166C26.8244 18.9102 25.5588 18.1756 23.9975 18.1756C22.4362 18.1756 21.1705 18.9102 21.1705 19.8166C21.1705 20.7229 22.4362 21.4576 23.9975 21.4576Z" fill="#F7BF2A"/>
<path d="M46 14.776V27.376H50.914C52.624 27.376 54.046 26.764 55.18 25.558C56.314 24.334 56.89 22.84 56.89 21.076C56.89 19.312 56.314 17.818 55.18 16.612C54.046 15.388 52.624 14.776 50.914 14.776H46ZM47.674 25.792V16.36H50.914C52.192 16.36 53.254 16.81 54.064 17.71C54.874 18.61 55.288 19.726 55.288 21.076C55.288 22.426 54.874 23.542 54.064 24.442C53.254 25.342 52.192 25.792 50.914 25.792H47.674Z" fill="white"/>
<path d="M67.3979 23.596C67.4339 23.362 67.4519 23.128 67.4519 22.894C67.4519 21.58 67.0379 20.464 66.1919 19.546C65.3639 18.61 64.2839 18.142 62.9699 18.142C61.5839 18.142 60.4499 18.592 59.5679 19.492C58.6859 20.392 58.2539 21.526 58.2539 22.876C58.2539 24.244 58.7039 25.378 59.5859 26.278C60.4859 27.16 61.6559 27.61 63.0779 27.61C64.8419 27.61 66.1559 26.926 67.0379 25.576L65.7059 24.82C65.1659 25.702 64.3019 26.134 63.1139 26.134C61.4039 26.134 60.1619 25.198 59.8559 23.596H67.3979ZM62.9699 19.618C64.4099 19.618 65.5979 20.518 65.8679 22.228H59.8559C60.1259 20.644 61.2959 19.618 62.9699 19.618Z" fill="white"/>
<path d="M74.2201 18.142C72.7261 18.142 71.5921 18.736 70.8181 19.924V18.376H69.2521V30.976H70.8181V25.828C71.5921 27.016 72.7261 27.61 74.2201 27.61C75.4801 27.61 76.5601 27.16 77.4421 26.242C78.3241 25.324 78.7741 24.19 78.7741 22.876C78.7741 21.562 78.3241 20.446 77.4421 19.528C76.5601 18.61 75.4801 18.142 74.2201 18.142ZM74.0221 26.098C73.1041 26.098 72.3481 25.792 71.7361 25.18C71.1241 24.55 70.8181 23.794 70.8181 22.876C70.8181 21.958 71.1241 21.202 71.7361 20.59C72.3481 19.96 73.1041 19.654 74.0221 19.654C74.9221 19.654 75.6781 19.96 76.2901 20.59C76.9021 21.202 77.2081 21.958 77.2081 22.876C77.2081 23.794 76.9021 24.55 76.2901 25.18C75.6781 25.792 74.9221 26.098 74.0221 26.098Z" fill="white"/>
<path d="M82.2087 27.376V14.236H80.6427V27.376H82.2087Z" fill="white"/>
<path d="M92.1938 26.242C93.1118 25.324 93.5798 24.208 93.5798 22.876C93.5798 21.544 93.1118 20.428 92.1938 19.51C91.2758 18.592 90.1418 18.142 88.8278 18.142C87.5138 18.142 86.3798 18.592 85.4618 19.51C84.5438 20.428 84.0938 21.544 84.0938 22.876C84.0938 24.208 84.5438 25.324 85.4618 26.242C86.3798 27.16 87.5138 27.61 88.8278 27.61C90.1418 27.61 91.2758 27.16 92.1938 26.242ZM88.8278 26.08C87.9458 26.08 87.1898 25.774 86.5778 25.162C85.9658 24.55 85.6598 23.794 85.6598 22.876C85.6598 21.958 85.9658 21.202 86.5778 20.59C87.1898 19.978 87.9458 19.672 88.8278 19.672C89.7278 19.672 90.4838 19.978 91.0958 20.59C91.7078 21.202 92.0138 21.958 92.0138 22.876C92.0138 23.794 91.7078 24.55 91.0958 25.162C90.4838 25.774 89.7278 26.08 88.8278 26.08Z" fill="white"/>
<path d="M98.7643 25.432L95.7043 18.376H94.0303L97.9543 27.34L97.7923 27.682C97.2703 28.996 96.4603 29.608 95.3623 29.518V30.976C97.1623 31.102 98.5843 29.968 99.3583 27.934L103.03 18.376H101.356L98.7643 25.432Z" fill="white"/>
<path d="M117.46 25.234L115.336 18.376H113.824L111.7 25.216L109.72 18.376H108.082L110.872 27.376H112.474L114.58 20.716L116.686 27.376H118.288L121.078 18.376H119.44L117.46 25.234Z" fill="white"/>
<path d="M123.482 16.738C124.058 16.738 124.526 16.27 124.526 15.694C124.526 15.118 124.058 14.632 123.482 14.632C122.888 14.632 122.42 15.118 122.42 15.694C122.42 16.27 122.888 16.738 123.482 16.738ZM124.256 27.376V18.376H122.69V27.376H124.256Z" fill="white"/>
<path d="M131.541 18.376H129.147V15.856L127.581 16.324V18.376H125.799V19.888H127.581V24.766C127.581 26.998 128.805 27.736 131.541 27.376V25.972C129.939 26.044 129.147 26.152 129.147 24.766V19.888H131.541V18.376Z" fill="white"/>
<path d="M137.877 18.142C136.563 18.142 135.591 18.646 134.961 19.672V14.776H133.395V27.376H134.961V22.606C134.961 20.59 136.005 19.636 137.571 19.636C138.957 19.636 139.803 20.482 139.803 21.94V27.376H141.369V21.85C141.369 19.564 139.983 18.142 137.877 18.142Z" fill="white"/>
<path d="M148.217 14.776V27.376H149.891V22.876H152.789C153.959 22.876 154.913 22.48 155.687 21.706C156.461 20.932 156.857 19.96 156.857 18.826C156.857 17.674 156.461 16.72 155.687 15.946C154.913 15.172 153.959 14.776 152.789 14.776H148.217ZM149.891 21.31V16.342H152.789C154.175 16.342 155.201 17.386 155.201 18.826C155.201 19.528 154.967 20.122 154.517 20.608C154.067 21.076 153.491 21.31 152.789 21.31H149.891Z" fill="white"/>
<path d="M164.882 23.146C164.882 25.162 163.838 26.116 162.272 26.116C160.886 26.116 160.04 25.27 160.04 23.812V18.376H158.474V23.902C158.474 26.188 159.86 27.61 161.966 27.61C163.28 27.61 164.252 27.106 164.882 26.08V27.376H166.448V18.376H164.882V23.146Z" fill="white"/>
<path d="M170.398 27.376V14.236H168.832V27.376H170.398Z" fill="white"/>
<path d="M178.997 23.146C178.997 25.162 177.953 26.116 176.387 26.116C175.001 26.116 174.155 25.27 174.155 23.812V18.376H172.589V23.902C172.589 26.188 173.975 27.61 176.081 27.61C177.395 27.61 178.367 27.106 178.997 26.08V27.376H180.563V18.376H178.997V23.146Z" fill="white"/>
<path d="M192.667 18.142C191.407 18.142 190.471 18.646 189.841 19.672C189.283 18.646 188.401 18.142 187.195 18.142C186.025 18.142 185.125 18.628 184.513 19.582V18.376H182.947V27.376H184.513V22.372C184.513 20.554 185.503 19.636 186.817 19.636C187.987 19.636 188.725 20.446 188.725 21.832V27.376H190.291V22.372C190.291 20.518 191.155 19.636 192.505 19.636C193.711 19.636 194.485 20.446 194.485 21.832V27.376H196.051V21.778C196.051 19.546 194.683 18.142 192.667 18.142Z" fill="white"/>
<path d="M199.015 16.738C199.591 16.738 200.059 16.27 200.059 15.694C200.059 15.118 199.591 14.632 199.015 14.632C198.421 14.632 197.953 15.118 197.953 15.694C197.953 16.27 198.421 16.738 199.015 16.738ZM199.789 27.376V18.376H198.223V27.376H199.789Z" fill="white"/>
</svg>
